Simulation
nRows=28
nColumns=15
endheader
time  TH_x TH_y TH_z SC_y  SC_z  SC_x  AC_y  AC_z  AC_x  GH_y  GH_z  GH_yy  EL_x  PS_y
2.8725  0.000000  0.000000  0.000000  -38.29169920349409  -3.2437670052534964  -15.016003118870865  46.03770941801627  9.702322575486464  7.803726815980292  2.7398716064319846  16.465189690256132  3.614152818369665  14.029546531209945  120.000000
2.92995  0.000000  0.000000  0.000000  -37.9321975218871  -3.591945501615606  -15.18039993261283  46.30683994995364  9.995406429509893  7.907084592302974  3.8119043620929434  15.369553892840411  4.9969509086983  14.39297766014209  120.000000
2.9874  0.000000  0.000000  0.000000  -37.68158144742564  -3.9163591495117416  -15.32923965740172  46.57465187064513  10.32590385953283  7.998662412925593  5.2351480169733815  14.483897237322617  5.587721450181748  14.84154464114379  120.000000
3.0448500000000003  0.000000  0.000000  0.000000  -37.517266388229224  -4.2071075143762355  -15.467109878528317  46.80005922598887  10.676857093211838  8.058332303931339  6.947487517945442  13.772358635967654  5.426728530201227  15.33065419513359  120.000000
3.1023  0.000000  0.000000  0.000000  -37.412148636911716  -4.457996568051117  -15.592904128955645  46.96008443303768  11.035914335635553  8.076436379652952  8.828126748808364  13.212287139290508  4.6674418284009445  15.81845850665894  120.000000
3.15975  0.000000  0.000000  0.000000  -37.34369493955374  -4.66787223258303  -15.701130850759695  47.04963799626727  11.393589485562458  8.051597205622071  10.732418696888367  12.790632798996604  3.52312853360985  16.275920030741393  120.000000
3.2172  0.000000  0.000000  0.000000  -37.295398203210375  -4.840359688019449  -15.786370815440321  47.0759691323989  11.741861202236027  7.98827556441819  12.505002251415059  12.496313809617922  2.2365908960319434  16.691736118497563  120.000000
3.2746500000000003  0.000000  0.000000  0.000000  -37.25591796339961  -4.981156950989251  -15.849221524300482  47.05278719434695  12.073464974196925  7.89751364110548  13.999840441161236  12.313901393646995  1.0455944914713362  17.070103807401136  120.000000
3.3321  0.000000  0.000000  0.000000  -37.214636508835994  -5.097498533110461  -15.89968719281004  46.999172469838314  12.381507894624114  7.795665936356351  15.124586111189108  12.22253500059486  0.12603440962120638  17.42387287913424  120.000000
3.38955  0.000000  0.000000  0.000000  -37.160618038005886  -5.197897424901487  -15.953263875496285  46.93845547427689  12.656526283972662  7.705175407145445  15.890882942943039  12.200338999945789  -0.4678604478737368  17.768280761038774  120.000000
3.447  0.000000  0.000000  0.000000  -37.085706179994204  -5.291796878207938  -16.022481286754022  46.890988849785636  12.887242507161979  7.649596335740854  16.399342739131917  12.23036068403969  -0.7950594306802234  18.116769873208156  120.000000
3.5044500000000003  0.000000  0.000000  0.000000  -36.98791828994498  -5.386498193428433  -16.11555245868463  46.86890800001226  13.066835063662491  7.642381771520851  16.760941993531315  12.304729566722713  -0.9509945882691525  18.47542967804227  120.000000
3.5619  0.000000  0.000000  0.000000  -36.87169956345546  -5.482896960401256  -16.23853325520143  46.8749930460562  13.195904196223157  7.684093975948597  17.04167824884628  12.42273844292575  -1.0050335645411048  18.843453973087758  120.000000
3.61935  0.000000  0.000000  0.000000  -36.745197447959356  -5.5778900606591995  -16.39402975051474  46.90294256126861  13.279065699917414  7.769139895425703  17.25435644272995  12.586109579494773  -0.9816182294366973  19.21679147221376  120.000000
3.6768  0.000000  0.000000  0.000000  -36.615377353333  -5.667751999022569  -16.581354188748417  46.94272539138845  13.321064824077018  7.890559690219682  17.38245461085247  12.79560042014185  -0.8757869100570511  19.5917243789772  120.000000
3.7342500000000003  0.000000  0.000000  0.000000  -36.48568244185049  -5.749137388530021  -16.798390047447892  46.985665699024494  13.324706008691368  8.042777098978089  17.40522670698873  13.04985391374085  -0.6738300603997819  19.966764075955954  120.000000
3.7917  0.000000  0.000000  0.000000  -36.35651406541881  -5.819807894886211  -17.04282025501426  47.026304933355185  13.290982015798347  8.223015696179598  17.308219103644987  13.346292619638705  -0.36261396952607966  20.342347566868913  120.000000
3.84915  0.000000  0.000000  0.000000  -36.22660760495763  -5.878469267188899  -17.311911014943778  47.06292666027703  13.220300090664402  8.431095613250516  17.082544695863483  13.683319999974758  0.07154625620213026  20.719597260545708  120.000000
3.9066  0.000000  0.000000  0.000000  -36.094446259316385  -5.923459246481169  -17.6013594965148  47.097079877731915  13.114413827948388  8.667812366870669  16.71620301059092  14.062514511638257  0.6516858974123175  21.098722821745355  120.000000
3.9640500000000003  0.000000  0.000000  0.000000  -35.959788705984764  -5.950824102190949  -17.904424917106695  47.13219424777327  12.977853264805487  8.933507186448088  16.187821464053293  14.489719670889365  1.4152833407594059  21.477736648375597  120.000000
4.0215  0.000000  0.000000  0.000000  -35.825915478806834  -5.953235398447556  -18.21187115219822  47.17304814840975  12.81732697231115  9.228173996434796  15.478243597562424  14.974756944255919  2.3988380398388083  21.852134883526677  120.000000
4.07895  0.000000  0.000000  0.000000  -35.70237493141755  -5.919901341798953  -18.51256242585611  47.22643947082294  12.639339070147715  9.552861241914385  14.59845459471969  15.529841684689249  3.603283779896072  22.214362133320435  120.000000
4.1364  0.000000  0.000000  0.000000  -35.60842938707397  -5.837390915468232  -18.794920255650133  47.30336774612944  12.44851339984123  9.911459409967554  13.620558797081785  16.167457201691448  4.954882745805712  22.55237056818689  120.000000
4.19385  0.000000  0.000000  0.000000  -35.57482373858731  -5.691768638611337  -19.049028855018292  47.42111881352471  12.249440395435826  10.312219013987026  12.689771707059029  16.898232266756136  6.287300665867042  22.848440773279847  120.000000
4.2513000000000005  0.000000  0.000000  0.000000  -35.643234435734755  -5.470656062841359  -19.266908859782127  47.60243373438737  12.051781996135526  10.767084405472742  12.000883020138108  17.729855248691806  7.364461913474019  23.081718086519704  120.000000
4.30875  0.000000  0.000000  0.000000  -35.862609115534156  -5.1643811125707355  -19.435105590181486  47.872200463832364  11.874486174258484  11.28511101578358  11.748969511826667  18.66884764944063  7.932856635582948  23.235728414179032  120.000000
4.3662  0.000000  0.000000  0.000000  -36.27885734294813  -4.76209739683597  -19.525471323317003  48.25372401261438  11.74945227850727  11.864794467131606  12.078201962209734  19.723056691829957  7.7770191008392615  23.31110430413627  120.000000
4.42365  0.000000  0.000000  0.000000  -36.92004411254855  -4.248672095079854  -19.490599263766143  48.76441053517568  11.72473458504228  12.489856415063947  13.043947529373495  20.90273068104513  6.761782556207763  23.335993216984885  120.000000
